#!OML:ASF I:\Actors\actors\Patient Classification 1\Patient 1\Session 1\Subject1.ASF
:FULLY-SPECIFIED
:DEGREES
555
root 0.428306 17.5019 9.25681 8.19481 0.355724 -9.55576
lowerback 1.53215 3.68726 7.77287
upperback -7.9646 5.57548 1.30226
thorax -8.71869 2.2422 -3.41368
lowerneck -14.7207 -3.27994 -0.986742
upperneck 29.9976 -6.42153 6.10166
head 12.6652 -2.14827 1.53613
rclavicle -2.29596e-014 -2.78299e-014
rhumerus 11.3099 55.7159 -56.3662
rradius 93.0784
rwrist 25.7822
rhand 11.0787 -20.505
rfingers 7.12502
rthumb 36.1487 -46.7849
lclavicle -2.29596e-014 -2.78299e-014
lhumerus -35.3159 -42.0911 94.5909
lradius 106.098
lwrist -35.325
lhand -27.9749 -13.9922
lfingers 7.12502
lthumb -1.36167 15.9832
rfemur -7.98955 16.3802 26.9365
rtibia 12.2637
rfoot -15.1881 -20.6124
rtoes 0.561549
lfemur 2.9505 -37.9746 -8.9793
ltibia -2.6072
lfoot -18.0421 46.5283
ltoes 4.98083
556
root 0.427935 17.5026 9.258 8.13037 0.768842 -9.56805
lowerback 1.65293 3.49042 7.8564
upperback -7.99621 5.32845 1.2621
thorax -8.84339 2.10617 -3.49554
lowerneck -14.8766 -3.23413 -0.927238
upperneck 30.1576 -6.37385 6.05916
head 12.7582 -2.11832 1.51689
rclavicle 9.64106e-015 3.65764e-014
rhumerus 9.64985 55.422 -57.1853
rradius 93.1392
rwrist 25.6406
rhand 11.6644 -20.4503
rfingers 7.12502
rthumb 36.7033 -46.5909
lclavicle 9.64106e-015 3.65764e-014
lhumerus -35.3998 -41.9506 94.4006
lradius 106.134
lwrist -35.0926
lhand -27.9593 -14.0254
lfingers 7.12502
lthumb -1.34658 15.9501
rfemur -7.96318 16.2451 26.9858
rtibia 12.3717
rfoot -15.3591 -20.8823
rtoes 0.800611
lfemur 2.76915 -37.9168 -8.78622
ltibia -2.60444
lfoot -17.4946 46.1518
ltoes 4.4174
557
root 0.425805 17.5052 9.25742 8.05116 1.02595 -9.59711
lowerback 1.2298 3.26354 7.53631
upperback -7.62837 4.95576 1.55478
thorax -8.27387 1.99162 -2.94275
lowerneck -15.0871 -3.03996 -0.785417
upperneck 29.9011 -5.99605 5.69179
head 12.6582 -1.98645 1.40316
rclavicle -1.86361e-014 -3.33958e-014
rhumerus 9.57644 55.1833 -56.5919
rradius 93.1284
rwrist 25.472
rhand 12.1634 -20.2836
rfingers 7.12502
rthumb 37.1753 -46.3026
lclavicle -1.86361e-014 -3.33958e-014
lhumerus -34.6988 -41.3382 93.975
lradius 106.101
lwrist -34.9411
lhand -27.804 -14.0872
lfingers 7.12502
lthumb -1.1966 15.8892
rfemur -7.95622 16.217 27.0691
rtibia 12.551
rfoot -15.4994 -21.1313
rtoes 0.709807
lfemur 2.63444 -37.7106 -8.59484
ltibia -2.58534
lfoot -17.1629 45.7374
ltoes 4.18223
558
root 0.426497 17.5056 9.25164 7.97954 1.04245 -9.42928
lowerback 1.75529 3.2536 7.46133
upperback -7.87994 4.99841 1.40602
thorax -8.85017 1.98073 -3.10667
lowerneck -14.8248 -3.04683 -0.659473
upperneck 29.9694 -6.01762 5.6134
head 12.6246 -1.99549 1.35248
rclavicle -2.24627e-014 -1.43125e-014
rhumerus 7.0386 54.7134 -58.3343
rradius 93.2348
rwrist 25.5079
rhand 12.392 -20.0832
rfingers 7.12502
rthumb 37.3914 -46.0455
lclavicle -2.24627e-014 -1.43125e-014
lhumerus -35.3808 -41.412 94.2823
lradius 106.176
lwrist -34.8482
lhand -27.4502 -14.0272
lfingers 7.12502
lthumb -0.854893 15.9509
rfemur -8.0235 16.3359 26.8745
rtibia 12.7792
rfoot -15.6068 -21.3155
rtoes 0.704027
lfemur 2.58134 -37.568 -8.73053
ltibia -2.52026
lfoot -17.0114 45.5367
ltoes 4.0509
559
root 0.432313 17.5021 9.24481 7.88688 0.851258 -9.00436
lowerback 1.5892 3.19365 6.87318
upperback -7.58364 4.8471 1.4487
thorax -8.4789 1.9712 -2.7067
lowerneck -15.0158 -2.92988 -0.660625
upperneck 29.7987 -5.79964 5.49481
head 12.5804 -1.91575 1.336
rclavicle 1.963e-014 -1.31198e-014
rhumerus 6.29526 54.1468 -58.6869
rradius 93.478
rwrist 25.2659
rhand 12.2886 -19.9302
rfingers 7.12502
rthumb 37.2936 -45.9182
lclavicle 1.963e-014 -1.31198e-014
lhumerus -34.9275 -40.9726 94.0072
lradius 106.129
lwrist -34.8423
lhand -27.2869 -14.1279
lfingers 7.12502
lthumb -0.69716 15.8507
rfemur -8.06734 16.4652 26.3353
rtibia 12.973
rfoot -15.6769 -21.3416
rtoes 0.580727
lfemur 2.75363 -37.72 -9.39204
ltibia -2.45844
lfoot -17.0871 45.7422
ltoes 4.11663
560
root 0.440396 17.4981 9.25406 7.83835 0.741852 -8.7601
lowerback 1.5027 3.22009 6.764
upperback -7.53887 4.85461 1.31285
thorax -8.37222 1.98206 -2.78291
lowerneck -15.0057 -2.93345 -0.673998
upperneck 29.8174 -5.83931 5.60964
head 12.593 -1.91954 1.37656
rclavicle -5.41191e-014 -1.74931e-014
rhumerus 4.44669 53.4055 -60.1736
rradius 93.992
rwrist 24.9161
rhand 11.5863 -20.2957
rfingers 7.12502
rthumb 36.6293 -46.4551
lclavicle -5.41191e-014 -1.74931e-014
lhumerus -35.0819 -40.9584 94.0327
lradius 106.128
lwrist -34.844
lhand -27.4618 -14.0185
lfingers 7.12502
lthumb -0.866099 15.9595
rfemur -7.97816 16.2787 26.0375
rtibia 12.9934
rfoot -15.701 -21.0953
rtoes 0.258771
lfemur 3.07195 -37.9353 -9.96588
ltibia -2.5201
lfoot -17.1889 46.0108
ltoes 4.21602
561
root 0.446525 17.4964 9.27195 7.88957 0.720041 -8.94893
lowerback 1.17458 3.24287 7.04955
upperback -7.50255 4.8683 1.31504
thorax -8.11978 1.9808 -2.91445
lowerneck -15.0426 -2.9521 -0.698103
upperneck 29.9062 -5.89312 5.68996
head 12.6438 -1.93255 1.40388
rclavicle 2.04748e-014 7.95139e-015
rhumerus 2.51591 52.5553 -61.861
rradius 94.6879
rwrist 24.7589
rhand 10.1663 -21.2397
rfingers 7.12502
rthumb 35.2841 -47.729
lclavicle 2.04748e-014 7.95139e-015
lhumerus -35.2314 -40.9471 94.1008
lradius 106.133
lwrist -34.8077
lhand -28.1385 -13.3086
lfingers 7.12502
lthumb -1.51965 16.6657
rfemur -7.9276 15.9624 26.2605
rtibia 12.9492
rfoot -15.6524 -20.7379
rtoes -0.205433
lfemur 3.30929 -38.0417 -9.93821
ltibia -2.68327
lfoot -17.281 46.1887
ltoes 4.26268
562
root 0.449984 17.496 9.28109 7.96296 0.605594 -9.09518
lowerback 1.0292 3.28148 7.18279
upperback -7.52426 4.91668 1.34435
thorax -8.04779 1.9996 -2.95043
lowerneck -15.0162 -2.98041 -0.698508
upperneck 29.9581 -5.94168 5.6997
head 12.6621 -1.95218 1.40116
rclavicle -1.07841e-014 -1.78906e-014
rhumerus 0.382164 51.407 -63.8245
rradius 95.4587
rwrist 24.9282
rhand 8.73612 -21.9103
rfingers 7.12502
rthumb 33.9266 -48.7103
lclavicle -1.07841e-014 -1.78906e-014
lhumerus -35.445 -40.904 94.2819
lradius 106.14
lwrist -34.7595
lhand -27.7494 -14.4718
lfingers 7.12502
lthumb -1.14392 15.5048
rfemur -7.98093 15.9342 26.4143
rtibia 12.9576
rfoot -15.6255 -20.5863
rtoes -0.321839
lfemur 3.41517 -38.1303 -9.85739
ltibia -2.76559
lfoot -17.6499 46.3586
ltoes 4.72191
563
root 0.45234 17.4957 9.28531 8.02717 0.44396 -9.06031
lowerback 1.54651 3.42479 7.38417
upperback -7.96027 5.18096 1.0708
thorax -8.7695 2.06384 -3.41947
lowerneck -14.582 -3.12461 -0.623665
upperneck 30.096 -6.23587 5.88252
head 12.6462 -2.05509 1.42096
rclavicle 2.4202e-014 3.18055e-015
rhumerus -3.17599 49.7097 -67.0636
rradius 96.3429
rwrist 25.2793
rhand 7.56149 -22.4598
rfingers 7.12502
rthumb 32.81 -49.4999
lclavicle 2.4202e-014 3.18055e-015
lhumerus -36.5192 -41.304 94.9246
lradius 106.205
lwrist -34.7618
lhand -27.4311 -14.8063
lfingers 7.12502
lthumb -0.836473 15.1718
rfemur -8.03239 16.1245 26.354
rtibia 12.966
rfoot -15.6675 -20.6032
rtoes 0.0348855
lfemur 3.42532 -38.1074 -9.92256
ltibia -2.76048
lfoot -17.952 46.4342
ltoes 5.15476
